<svg width="37" height="25" viewBox="0 0 37 25" fill="none" xmlns="http://www.w3.org/2000/svg">
<path fill-rule="evenodd" clip-rule="evenodd" d="M23.0347 7.49947C21.9115 4.91209 23.0985 1.90407 25.6859 0.780866C28.2732 -0.342337 31.2813 0.844612 32.4045 3.43199L36.1459 12.0506C37.2691 14.638 36.0821 17.646 33.4948 18.7692C30.9074 19.8924 27.8994 18.7055 26.7762 16.1181L23.0347 7.49947ZM10.8446 8.09154C9.74518 5.58885 10.8828 2.66876 13.3855 1.56936C15.8882 0.46995 18.8083 1.60754 19.9077 4.11024L25.8717 17.6869C26.9712 20.1896 25.8336 23.1097 23.3309 24.2091C20.8282 25.3085 17.9081 24.1709 16.8087 21.6682L10.8446 8.09154ZM2.7219 4.26222C0.431476 5.25651 -0.619247 7.9193 0.375046 10.2097L3.97313 18.4982C4.96742 20.7886 7.63021 21.8393 9.92064 20.845C12.2111 19.8507 13.2618 17.1879 12.2675 14.8975L8.66941 6.60907C7.67512 4.31865 5.01233 3.26792 2.7219 4.26222Z" fill="#AD2F33"/>
</svg>
